<svg width="143" height="11" fill="none" xmlns="http://www.w3.org/2000/svg"><path d="M19.174 1.53c-2.382 0-4.125 1.675-4.125 3.957 0 2.28 1.742 3.956 4.125 3.956 2.384 0 4.126-1.675 4.126-3.956-.03-2.282-1.743-3.957-4.126-3.957zm-.058 6.383c-1.424 0-2.353-.982-2.353-2.426 0-1.445.93-2.426 2.353-2.426 1.452 0 2.353.952 2.353 2.426 0 1.444-.93 2.426-2.353 2.426zm-12.289-2.6c.843-.347 1.598-1.155 1.598-2.34 0-1.674-1.336-2.8-3.283-2.8H0V10.77h5.259c2.063 0 3.37-1.155 3.37-2.917-.03-1.126-.785-2.165-1.802-2.54zM1.655 1.588H4.88c1.104 0 1.801.606 1.801 1.53 0 .925-.697 1.502-1.8 1.502H1.654V1.588zM4.94 9.356H1.655V6.094H4.94c1.191 0 1.947.635 1.947 1.645 0 1.011-.756 1.617-1.947 1.617zM30.066.791c0-.382.312-.692.697-.692h7.984c.383 0 .694.308.697.69a.695.695 0 01-.697.696h-7.984a.695.695 0 01-.697-.694zm0 9.504c0-.382.312-.692.697-.692h7.984c.383 0 .694.308.697.69a.695.695 0 01-.697.696h-7.984a.697.697 0 01-.697-.694zm13.34-4.081h-5.447a.712.712 0 01-.714-.723.712.712 0 01.714-.696l5.447-.004c.392 0 .711.314.714.706V5.5a.713.713 0 01-.714.714zm83.88-6.041h-1.685v10.6h1.685V.172zM64.825 7.797c0 1.53-1.134 3.177-4.3 3.177-2.294 0-3.66-.924-4.386-1.704l-.087-.086 1.017-1.185.116.116a4.67 4.67 0 003.399 1.443c1.83 0 2.498-.837 2.498-1.645 0-1.127-1.308-1.444-2.818-1.82-1.802-.462-3.836-.952-3.836-3.061 0-1.762 1.686-3.003 4.01-3.003 1.684 0 3.05.49 4.066 1.501l.088.087-1.017 1.155-.117-.115c-.755-.78-1.888-1.213-3.137-1.213-1.279 0-2.179.606-2.179 1.501 0 .896 1.192 1.213 2.585 1.56 1.831.433 4.098.982 4.098 3.292zM114.648 0c-3.312 0-5.723 2.31-5.723 5.487 0 3.176 2.411 5.486 5.723 5.486s5.723-2.31 5.723-5.486c0-3.176-2.411-5.487-5.723-5.487zm0 9.53c-2.382 0-3.98-1.646-3.98-4.072s1.598-4.072 3.98-4.072c2.382 0 3.98 1.646 3.98 4.072 0 2.397-1.627 4.072-3.98 4.072zM136.96.173h-3.98v10.6h3.98c3.458 0 5.897-2.167 5.897-5.285 0-3.12-2.411-5.315-5.897-5.315zm0 9.183h-2.295V1.588h2.295c2.528 0 4.154 1.53 4.154 3.899 0 2.31-1.656 3.87-4.154 3.87zm-35.647-2.83c1.482-.202 2.818-1.213 2.818-3.118 0-1.936-1.482-3.235-3.661-3.235h-4.648v10.6h1.685V6.67h2.005l2.847 4.101h2.004l-3.05-4.246zm-3.806-1.27V1.588h2.789c1.249 0 2.092.751 2.092 1.82 0 1.097-.872 1.848-2.092 1.848h-2.789zM69.153.173h8.803v1.415h-3.573v9.183h-1.686V1.588h-3.544V.173zm13.742 0h7.64v1.415H84.58v3.033h5.839v1.415H84.58v3.263h5.955v1.415h-7.64V.174z" fill="#000"/><path d="M45.852.015c-3.312 0-5.722 2.31-5.722 5.486 0 3.176 2.41 5.487 5.722 5.487 3.312 0 5.723-2.31 5.723-5.487 0-3.176-2.41-5.486-5.723-5.486zm0 9.53c-2.382 0-3.98-1.646-3.98-4.072S43.47 1.4 45.852 1.4c2.382 0 3.98 1.646 3.98 4.072 0 2.396-1.626 4.071-3.98 4.071z" fill="#000"/></svg>