<svg width="143" height="11" viewBox="0 0 143 11" fill="none" xmlns="http://www.w3.org/2000/svg">
<path d="M19.1745 1.5302C16.7924 1.5302 15.0487 3.20536 15.0487 5.48653C15.0487 7.7677 16.7914 9.44285 19.1745 9.44285C21.5575 9.44285 23.3002 7.7677 23.3002 5.48653C23.2705 3.20536 21.5566 1.5302 19.1745 1.5302ZM19.116 7.91255C17.6925 7.91255 16.7627 6.93111 16.7627 5.48653C16.7627 4.04195 17.6925 3.06051 19.116 3.06051C20.5682 3.06051 21.4693 4.01338 21.4693 5.48653C21.4693 6.93111 20.5395 7.91255 19.116 7.91255Z" fill="black"/>
<path d="M6.82703 5.31311C7.66963 4.96625 8.42499 4.15824 8.42499 2.9738C8.42499 1.29865 7.08873 0.172351 5.14183 0.172351H0V10.7712H5.25881C7.32168 10.7712 8.6292 9.61629 8.6292 7.85442C8.59946 6.72812 7.8441 5.68854 6.82703 5.31311ZM1.65546 1.58835H4.88013C5.98443 1.58835 6.68131 2.19436 6.68131 3.11865C6.68131 4.04295 5.98443 4.62038 4.88013 4.62038H1.65546V1.58835ZM4.93862 9.35615H1.65546V6.09353H4.93862C6.13015 6.09353 6.88552 6.72911 6.88552 7.73913C6.88552 8.75013 6.13015 9.35615 4.93862 9.35615Z" fill="black"/>
<path d="M30.0659 0.79133C30.0659 0.409 30.3781 0.0986037 30.7628 0.0986037H38.7466C39.1303 0.0986037 39.4415 0.40703 39.4435 0.788374C39.4455 1.17267 39.1322 1.48504 38.7466 1.48504H30.7628C30.3781 1.48504 30.0659 1.17465 30.0659 0.79133Z" fill="black"/>
<path d="M30.0659 10.2953C30.0659 9.91297 30.3781 9.60257 30.7628 9.60257H38.7466C39.1303 9.60257 39.4415 9.911 39.4435 10.2923C39.4455 10.6766 39.1322 10.989 38.7466 10.989H30.7628C30.3781 10.988 30.0659 10.6776 30.0659 10.2953Z" fill="black"/>
<path d="M43.4057 6.21388H37.9585C37.5591 6.21388 37.2369 5.88772 37.2448 5.49061C37.2527 5.10433 37.57 4.79492 37.9585 4.79492L43.4057 4.79098C43.7982 4.79098 44.1174 5.10532 44.1204 5.49652V5.50046C44.1224 5.89264 43.8022 6.21388 43.4057 6.21388Z" fill="black"/>
<path d="M127.286 0.173489H125.601V10.7723H127.286V0.173489Z" fill="black"/>
<path d="M64.8245 7.79735C64.8245 9.32765 63.6915 10.9742 60.5253 10.9742C58.2305 10.9742 56.8645 10.0499 56.1388 9.2705L56.0516 9.18379L57.0687 7.99935L57.1846 8.11465C57.708 8.6635 58.8411 9.55824 60.5838 9.55824C62.4137 9.55824 63.0818 8.72066 63.0818 7.91264C63.0818 6.78635 61.7743 6.46905 60.2636 6.09362C58.4624 5.63147 56.4283 5.14075 56.4283 3.03202C56.4283 1.27015 58.1135 0.0285676 60.4371 0.0285676C62.1223 0.0285676 63.4873 0.51929 64.5043 1.5303L64.5916 1.61701L63.5745 2.77188L63.4585 2.65659C62.7032 1.87715 61.5701 1.44358 60.3211 1.44358C59.0423 1.44358 58.1422 2.04959 58.1422 2.94531C58.1422 3.84103 59.3338 4.15832 60.7275 4.50518C62.5584 4.93776 64.8245 5.48662 64.8245 7.79735Z" fill="black"/>
<path d="M114.648 0C111.336 0 108.925 2.31073 108.925 5.48663C108.925 8.66253 111.336 10.9733 114.648 10.9733C117.96 10.9733 120.371 8.66253 120.371 5.48663C120.371 2.31073 117.96 0 114.648 0ZM114.648 9.52967C112.266 9.52967 110.668 7.88407 110.668 5.45805C110.668 3.03203 112.266 1.38644 114.648 1.38644C117.03 1.38644 118.628 3.03203 118.628 5.45805C118.628 7.85451 117.001 9.52967 114.648 9.52967Z" fill="black"/>
<path d="M136.96 0.173489H132.98V10.7723H136.96C140.418 10.7723 142.857 8.60642 142.857 5.48767C142.857 2.36893 140.446 0.173489 136.96 0.173489ZM136.96 9.3563H134.665V1.5885H136.96C139.488 1.5885 141.114 3.11881 141.114 5.48669C141.114 7.79742 139.458 9.3563 136.96 9.3563Z" fill="black"/>
<path d="M101.313 6.52627C102.795 6.32427 104.131 5.31326 104.131 3.40753C104.131 1.47223 102.649 0.173489 100.47 0.173489H95.8223V10.7723H97.5075V6.67112H99.5119L102.359 10.7723H104.363L101.313 6.52627ZM97.5075 5.25611V1.5885H100.296C101.545 1.5885 102.388 2.33937 102.388 3.40753C102.388 4.50525 101.516 5.25611 100.296 5.25611H97.5075Z" fill="black"/>
<path d="M69.1535 0.173489H77.9562V1.5885H74.3826V10.7713H72.6974V1.5885H69.1535V0.173489Z" fill="black"/>
<path d="M82.8948 0.173489H90.5347V1.5885H84.58V4.62054H90.4187V6.03555H84.58V9.29915H90.5347V10.7142H82.8948V0.173489Z" fill="black"/>
<path d="M45.8522 0.0147739C42.5403 0.0147739 40.1295 2.3255 40.1295 5.5014C40.1295 8.6773 42.5403 10.988 45.8522 10.988C49.1641 10.988 51.575 8.6773 51.575 5.5014C51.575 2.3255 49.1641 0.0147739 45.8522 0.0147739ZM45.8522 9.54444C43.4702 9.54444 41.8722 7.89885 41.8722 5.47283C41.8722 3.04681 43.4702 1.40121 45.8522 1.40121C48.2343 1.40121 49.8323 3.04681 49.8323 5.47283C49.8323 7.86929 48.2056 9.54444 45.8522 9.54444Z" fill="black"/>
</svg>
